<svg xmlns="http://www.w3.org/2000/svg" xmlns:xlink="http://www.w3.org/1999/xlink" contentStyleType="text/css" data-diagram-type="ACTIVITY" height="523px" preserveAspectRatio="none" style="width:199px;height:523px;background:#FFFFFF;" version="1.1" viewBox="0 0 199 523" width="199px" zoomAndPan="magnify"><defs/><g><rect fill="#CCCCCC" height="34.9819" rx="12.5" ry="12.5" style="stroke:#AAAAAA;stroke-width:0.5;" width="89.8275" x="45.8434" y="11"/><text fill="#000000" font-family="Verdana" font-size="11" lengthAdjust="spacing" textLength="69.8275" x="55.8434" y="32.7589">clean content</text><rect fill="none" height="401.9774" style="stroke:#000000;stroke-width:1.5;" width="177.5142" x="11" y="55.9819"/><path d="M143.7095,55.9819 L143.7095,68.0498 L133.7095,78.0498 L11,78.0498" fill="none" style="stroke:#000000;stroke-width:1.5;"/><text fill="#000000" font-family="sans-serif" font-size="14" lengthAdjust="spacing" textLength="122.7095" x="14" y="71.9478">update_parameter</text><rect fill="#CCCCCC" height="34.9819" rx="12.5" ry="12.5" style="stroke:#AAAAAA;stroke-width:0.5;" width="65.2207" x="58.1468" y="139.0498"/><text fill="#000000" font-family="Verdana" font-size="11" lengthAdjust="spacing" textLength="45.2207" x="68.1468" y="160.8087">read line</text><rect fill="#CCCCCC" height="34.9819" rx="12.5" ry="12.5" style="stroke:#AAAAAA;stroke-width:0.5;" width="139.5142" x="21" y="194.0317"/><text fill="#000000" font-family="Verdana" font-size="11" lengthAdjust="spacing" textLength="119.5142" x="31" y="215.7906">select data table by tag</text><rect fill="#CCCCCC" height="34.9819" rx="12.5" ry="12.5" style="stroke:#AAAAAA;stroke-width:0.5;" width="121.5293" x="29.9925" y="249.0136"/><text fill="#000000" font-family="Verdana" font-size="11" lengthAdjust="spacing" textLength="101.5293" x="39.9925" y="270.7725">select value in table</text><rect fill="#CCCCCC" height="34.9819" rx="12.5" ry="12.5" style="stroke:#AAAAAA;stroke-width:0.5;" width="91.0045" x="45.2549" y="303.9955"/><text fill="#000000" font-family="Verdana" font-size="11" lengthAdjust="spacing" textLength="71.0045" x="55.2549" y="325.7544">validate value</text><rect fill="#CCCCCC" height="34.9819" rx="12.5" ry="12.5" style="stroke:#AAAAAA;stroke-width:0.5;" width="87.1325" x="47.1908" y="358.9774"/><text fill="#000000" font-family="Verdana" font-size="11" lengthAdjust="spacing" textLength="67.1325" x="57.1908" y="380.7363">update value</text><polygon fill="#CCCCCC" points="90.7571,95.0498,102.7571,107.0498,90.7571,119.0498,78.7571,107.0498,90.7571,95.0498" style="stroke:#AAAAAA;stroke-width:0.5;"/><polygon fill="#CCCCCC" points="56.8554,413.9592,124.6588,413.9592,136.6588,425.9592,124.6588,437.9592,56.8554,437.9592,44.8554,425.9592,56.8554,413.9592" style="stroke:#AAAAAA;stroke-width:0.5;"/><text fill="#333333" font-family="Verdana" font-size="11" lengthAdjust="spacing" textLength="17.0829" x="94.7571" y="449.7182">yes</text><text fill="#000000" font-family="Verdana" font-size="11" lengthAdjust="spacing" textLength="67.8035" x="56.8554" y="430.2272">end of buffer</text><text fill="#333333" font-family="Verdana" font-size="11" lengthAdjust="spacing" textLength="13.4529" x="136.6588" y="422.7363">no</text><rect fill="#CCCCCC" height="34.9819" rx="12.5" ry="12.5" style="stroke:#AAAAAA;stroke-width:0.5;" width="116.2933" x="32.6105" y="477.9592"/><text fill="#000000" font-family="Verdana" font-size="11" lengthAdjust="spacing" textLength="96.2933" x="42.6105" y="499.7182">use configuratoins</text><line style="stroke:#000000;stroke-width:1;" x1="90.7571" x2="90.7571" y1="174.0317" y2="194.0317"/><polygon fill="#000000" points="86.7571,184.0317,90.7571,194.0317,94.7571,184.0317,90.7571,188.0317" style="stroke:#000000;stroke-width:1;"/><line style="stroke:#000000;stroke-width:1;" x1="90.7571" x2="90.7571" y1="229.0136" y2="249.0136"/><polygon fill="#000000" points="86.7571,239.0136,90.7571,249.0136,94.7571,239.0136,90.7571,243.0136" style="stroke:#000000;stroke-width:1;"/><line style="stroke:#000000;stroke-width:1;" x1="90.7571" x2="90.7571" y1="283.9955" y2="303.9955"/><polygon fill="#000000" points="86.7571,293.9955,90.7571,303.9955,94.7571,293.9955,90.7571,297.9955" style="stroke:#000000;stroke-width:1;"/><line style="stroke:#000000;stroke-width:1;" x1="90.7571" x2="90.7571" y1="338.9774" y2="358.9774"/><polygon fill="#000000" points="86.7571,348.9774,90.7571,358.9774,94.7571,348.9774,90.7571,352.9774" style="stroke:#000000;stroke-width:1;"/><line style="stroke:#000000;stroke-width:1;" x1="90.7571" x2="90.7571" y1="119.0498" y2="139.0498"/><polygon fill="#000000" points="86.7571,129.0498,90.7571,139.0498,94.7571,129.0498,90.7571,133.0498" style="stroke:#000000;stroke-width:1;"/><line style="stroke:#000000;stroke-width:1;" x1="136.6588" x2="172.5142" y1="425.9592" y2="425.9592"/><polygon fill="#000000" points="168.5142,276.5045,172.5142,266.5045,176.5142,276.5045,172.5142,272.5045" style="stroke:#000000;stroke-width:1;"/><line style="stroke:#000000;stroke-width:1;" x1="172.5142" x2="172.5142" y1="107.0498" y2="425.9592"/><line style="stroke:#000000;stroke-width:1;" x1="172.5142" x2="102.7571" y1="107.0498" y2="107.0498"/><polygon fill="#000000" points="112.7571,103.0498,102.7571,107.0498,112.7571,111.0498,108.7571,107.0498" style="stroke:#000000;stroke-width:1;"/><line style="stroke:#000000;stroke-width:1;" x1="90.7571" x2="90.7571" y1="393.9592" y2="413.9592"/><polygon fill="#000000" points="86.7571,403.9592,90.7571,413.9592,94.7571,403.9592,90.7571,407.9592" style="stroke:#000000;stroke-width:1;"/><line style="stroke:#000000;stroke-width:1;" x1="90.7571" x2="90.7571" y1="45.9819" y2="95.0498"/><polygon fill="#000000" points="86.7571,85.0498,90.7571,95.0498,94.7571,85.0498,90.7571,89.0498" style="stroke:#000000;stroke-width:1;"/><line style="stroke:#000000;stroke-width:1;" x1="90.7571" x2="90.7571" y1="437.9592" y2="477.9592"/><polygon fill="#000000" points="86.7571,467.9592,90.7571,477.9592,94.7571,467.9592,90.7571,471.9592" style="stroke:#000000;stroke-width:1;"/><!--SRC=[HO_13e9034Jl-nNL4npy0VWOKzW1cYnTibiqnFZlrX3ZhNtJpcGkjc055SHOKEijoRpOa7Q4q8q9h3HcDQZrOUDYOfALhliMsN1tmYiCvKglKB21BNG572c9eWzTHS9evCTCnaC23OSFyrzwi6UHw2axTo1VyrDnS6RzrZE5dekuMGEDb2SQzcb2QKagDPfRqcpK7AXjUFj_nRV39FDUsB9exJy0]--></g></svg>