<svg xmlns="http://www.w3.org/2000/svg" xmlns:xlink="http://www.w3.org/1999/xlink" contentStyleType="text/css" data-diagram-type="ACTIVITY" height="636px" preserveAspectRatio="none" style="width:214px;height:636px;background:#FFFFFF;" version="1.1" viewBox="0 0 214 636" width="214px" zoomAndPan="magnify"><defs/><g><rect fill="#CCCCCC" height="34.9819" rx="12.5" ry="12.5" style="stroke:#AAAAAA;stroke-width:0.5;" width="89.8275" x="36.2329" y="11"/><text fill="#000000" font-family="Verdana" font-size="11" lengthAdjust="spacing" textLength="69.8275" x="46.2329" y="32.7589">clean content</text><rect fill="none" height="514.2634" style="stroke:#000000;stroke-width:1.5;" width="192.5657" x="11" y="55.9819"/><path d="M143.7095,55.9819 L143.7095,68.0498 L133.7095,78.0498 L11,78.0498" fill="none" style="stroke:#000000;stroke-width:1.5;"/><text fill="#000000" font-family="sans-serif" font-size="14" lengthAdjust="spacing" textLength="122.7095" x="14" y="71.9478">update_parameter</text><rect fill="#CCCCCC" height="34.9819" rx="12.5" ry="12.5" style="stroke:#AAAAAA;stroke-width:0.5;" width="65.2207" x="48.5363" y="183.0498"/><text fill="#000000" font-family="Verdana" font-size="11" lengthAdjust="spacing" textLength="45.2207" x="58.5363" y="204.8087">read line</text><rect fill="#CCCCCC" height="34.9819" rx="12.5" ry="12.5" style="stroke:#AAAAAA;stroke-width:0.5;" width="93.6005" x="34.3464" y="287.5226"/><text fill="#000000" font-family="Verdana" font-size="11" lengthAdjust="spacing" textLength="73.6005" x="44.3464" y="309.2815">decode values</text><rect fill="#CCCCCC" height="34.9819" rx="12.5" ry="12.5" style="stroke:#AAAAAA;stroke-width:0.5;" width="114.3903" x="23.9515" y="348.0045"/><text fill="#000000" font-family="Verdana" font-size="11" lengthAdjust="spacing" textLength="94.3903" x="33.9515" y="369.7634">update parameter</text><polygon fill="#CCCCCC" points="55.8633,238.0317,106.43,238.0317,118.43,250.0317,106.43,262.0317,55.8633,262.0317,43.8633,250.0317,55.8633,238.0317" style="stroke:#AAAAAA;stroke-width:0.5;"/><text fill="#333333" font-family="Verdana" font-size="11" lengthAdjust="spacing" textLength="17.0829" x="85.1467" y="273.7906">yes</text><text fill="#000000" font-family="Verdana" font-size="11" lengthAdjust="spacing" textLength="50.5666" x="55.8633" y="254.2997">tag found</text><polygon fill="#CCCCCC" points="81.1467,139.0498,93.1467,151.0498,81.1467,163.0498,69.1467,151.0498,81.1467,139.0498" style="stroke:#AAAAAA;stroke-width:0.5;"/><polygon fill="#CCCCCC" points="47.2449,424.9864,115.0484,424.9864,127.0484,436.9864,115.0484,448.9864,47.2449,448.9864,35.2449,436.9864,47.2449,424.9864" style="stroke:#AAAAAA;stroke-width:0.5;"/><text fill="#333333" font-family="Verdana" font-size="11" lengthAdjust="spacing" textLength="17.0829" x="85.1467" y="460.7453">yes</text><text fill="#000000" font-family="Verdana" font-size="11" lengthAdjust="spacing" textLength="67.8035" x="47.2449" y="441.2544">end of buffer</text><text fill="#333333" font-family="Verdana" font-size="11" lengthAdjust="spacing" textLength="13.4529" x="127.0484" y="433.7634">no</text><polygon fill="#CCCCCC" points="81.1467,482.2453,93.1467,494.2453,81.1467,506.2453,69.1467,494.2453,81.1467,482.2453" style="stroke:#AAAAAA;stroke-width:0.5;"/><polygon fill="#CCCCCC" points="81.1467,95.0498,93.1467,107.0498,81.1467,119.0498,69.1467,107.0498,81.1467,95.0498" style="stroke:#AAAAAA;stroke-width:0.5;"/><polygon fill="#CCCCCC" points="35.8105,526.2453,126.4828,526.2453,138.4828,538.2453,126.4828,550.2453,35.8105,550.2453,23.8105,538.2453,35.8105,526.2453" style="stroke:#AAAAAA;stroke-width:0.5;"/><text fill="#333333" font-family="Verdana" font-size="11" lengthAdjust="spacing" textLength="13.4529" x="85.1467" y="562.0042">no</text><text fill="#000000" font-family="Verdana" font-size="11" lengthAdjust="spacing" textLength="90.6724" x="35.8105" y="542.5133">more parameters</text><text fill="#333333" font-family="Verdana" font-size="11" lengthAdjust="spacing" textLength="17.0829" x="138.4828" y="535.0223">yes</text><rect fill="#CCCCCC" height="34.9819" rx="12.5" ry="12.5" style="stroke:#AAAAAA;stroke-width:0.5;" width="116.2933" x="23" y="590.2453"/><text fill="#000000" font-family="Verdana" font-size="11" lengthAdjust="spacing" textLength="96.2933" x="33" y="612.0042">use configuratoins</text><line style="stroke:#000000;stroke-width:1;" x1="81.1467" x2="81.1467" y1="322.5045" y2="348.0045"/><polygon fill="#000000" points="77.1467,338.0045,81.1467,348.0045,85.1467,338.0045,81.1467,342.0045" style="stroke:#000000;stroke-width:1;"/><line style="stroke:#000000;stroke-width:1;" x1="81.1467" x2="81.1467" y1="382.9864" y2="387.9864"/><line style="stroke:#000000;stroke-width:1;" x1="81.1467" x2="18" y1="387.9864" y2="387.9864"/><line style="stroke:#000000;stroke-width:1;" x1="18" x2="18" y1="387.9864" y2="494.2453"/><line style="stroke:#000000;stroke-width:1;" x1="18" x2="69.1467" y1="494.2453" y2="494.2453"/><polygon fill="#000000" points="59.1467,490.2453,69.1467,494.2453,59.1467,498.2453,63.1467,494.2453" style="stroke:#000000;stroke-width:1;"/><line style="stroke:#000000;stroke-width:1;" x1="81.1467" x2="81.1467" y1="262.0317" y2="287.5226"/><polygon fill="#000000" points="77.1467,277.5226,81.1467,287.5226,85.1467,277.5226,81.1467,281.5226" style="stroke:#000000;stroke-width:1;"/><line style="stroke:#000000;stroke-width:1;" x1="118.43" x2="148.3418" y1="250.0317" y2="250.0317"/><polygon fill="#000000" points="144.3418,335.0045,148.3418,345.0045,152.3418,335.0045,148.3418,339.0045" style="stroke:#000000;stroke-width:1;"/><line style="stroke:#000000;stroke-width:1;" x1="148.3418" x2="148.3418" y1="250.0317" y2="404.9864"/><line style="stroke:#000000;stroke-width:1;" x1="148.3418" x2="81.1467" y1="404.9864" y2="404.9864"/><line style="stroke:#000000;stroke-width:1;" x1="81.1467" x2="81.1467" y1="404.9864" y2="424.9864"/><polygon fill="#000000" points="77.1467,414.9864,81.1467,424.9864,85.1467,414.9864,81.1467,418.9864" style="stroke:#000000;stroke-width:1;"/><line style="stroke:#000000;stroke-width:1;" x1="81.1467" x2="81.1467" y1="218.0317" y2="238.0317"/><polygon fill="#000000" points="77.1467,228.0317,81.1467,238.0317,85.1467,228.0317,81.1467,232.0317" style="stroke:#000000;stroke-width:1;"/><line style="stroke:#000000;stroke-width:1;" x1="81.1467" x2="81.1467" y1="163.0498" y2="183.0498"/><polygon fill="#000000" points="77.1467,173.0498,81.1467,183.0498,85.1467,173.0498,81.1467,177.0498" style="stroke:#000000;stroke-width:1;"/><line style="stroke:#000000;stroke-width:1;" x1="127.0484" x2="169.5657" y1="436.9864" y2="436.9864"/><polygon fill="#000000" points="165.5657,323.5136,169.5657,313.5136,173.5657,323.5136,169.5657,319.5136" style="stroke:#000000;stroke-width:1;"/><line style="stroke:#000000;stroke-width:1;" x1="169.5657" x2="169.5657" y1="151.0498" y2="436.9864"/><line style="stroke:#000000;stroke-width:1;" x1="169.5657" x2="93.1467" y1="151.0498" y2="151.0498"/><polygon fill="#000000" points="103.1467,147.0498,93.1467,151.0498,103.1467,155.0498,99.1467,151.0498" style="stroke:#000000;stroke-width:1;"/><line style="stroke:#000000;stroke-width:1;" x1="81.1467" x2="81.1467" y1="448.9864" y2="482.2453"/><polygon fill="#000000" points="77.1467,472.2453,81.1467,482.2453,85.1467,472.2453,81.1467,476.2453" style="stroke:#000000;stroke-width:1;"/><line style="stroke:#000000;stroke-width:1;" x1="81.1467" x2="81.1467" y1="119.0498" y2="139.0498"/><polygon fill="#000000" points="77.1467,129.0498,81.1467,139.0498,85.1467,129.0498,81.1467,133.0498" style="stroke:#000000;stroke-width:1;"/><line style="stroke:#000000;stroke-width:1;" x1="138.4828" x2="187.5657" y1="538.2453" y2="538.2453"/><polygon fill="#000000" points="183.5657,343.5136,187.5657,333.5136,191.5657,343.5136,187.5657,339.5136" style="stroke:#000000;stroke-width:1;"/><line style="stroke:#000000;stroke-width:1;" x1="187.5657" x2="187.5657" y1="107.0498" y2="538.2453"/><line style="stroke:#000000;stroke-width:1;" x1="187.5657" x2="93.1467" y1="107.0498" y2="107.0498"/><polygon fill="#000000" points="103.1467,103.0498,93.1467,107.0498,103.1467,111.0498,99.1467,107.0498" style="stroke:#000000;stroke-width:1;"/><line style="stroke:#000000;stroke-width:1;" x1="81.1467" x2="81.1467" y1="506.2453" y2="526.2453"/><polygon fill="#000000" points="77.1467,516.2453,81.1467,526.2453,85.1467,516.2453,81.1467,520.2453" style="stroke:#000000;stroke-width:1;"/><line style="stroke:#000000;stroke-width:1;" x1="81.1467" x2="81.1467" y1="45.9819" y2="95.0498"/><polygon fill="#000000" points="77.1467,85.0498,81.1467,95.0498,85.1467,85.0498,81.1467,89.0498" style="stroke:#000000;stroke-width:1;"/><line style="stroke:#000000;stroke-width:1;" x1="81.1467" x2="81.1467" y1="550.2453" y2="590.2453"/><polygon fill="#000000" points="77.1467,580.2453,81.1467,590.2453,85.1467,580.2453,81.1467,584.2453" style="stroke:#000000;stroke-width:1;"/><!--SRC=[NP31QiGm34Jl-WfrJycXFv1yJ77YSIBMaOCjxr9A_xrUl2rBTH4CC_DWtcp70SxmFgEKzoZRRaki8A9fZN3AQrA3saodooOcIVbIJ-yC7qrn1mpvmb-KSSBPxviodESeYfaay61kuv2g-f4RKdduH1c9sqqUQ_BWcslOCdUj0_WFqEMbbLu9wYNG4yJtNI9uQ2Adm4iD0NbaAJne6bcJFL7__4VAB_Mb9nx67cbP-cuJr8B7046scfqbqJB_0000]--></g></svg>